<svg width="48" height="48" viewBox="0 0 48 48" fill="none" xmlns="http://www.w3.org/2000/svg">
<path d="M12.1715 47.8302C9.31697 47.7004 7.76628 47.2254 6.73487 46.8231C5.36821 46.291 4.39385 45.6576 3.36815 44.6333C2.34244 43.609 1.70761 42.6347 1.17835 41.268C0.776057 40.2366 0.301008 38.6859 0.171189 35.8313C0.0285315 32.7456 0 31.8198 0 24.0021C0 16.1845 0.0313847 15.2601 0.169763 12.1715C0.299581 9.31697 0.777484 7.76913 1.17693 6.73487C1.70904 5.36821 2.34386 4.39385 3.36672 3.36672C4.391 2.34244 5.36535 1.70618 6.73344 1.17693C7.76485 0.774631 9.31554 0.299581 12.1701 0.169763C15.2572 0.0285315 16.1845 0 23.9993 0C31.8169 0 32.7413 0.0313847 35.8299 0.169763C38.6845 0.299581 40.2323 0.777484 41.2666 1.17693C42.6332 1.70618 43.6076 2.34244 44.6333 3.36672C45.659 4.391 46.291 5.36678 46.8231 6.73344C47.2254 7.76485 47.7004 9.31554 47.8302 12.1701C47.9715 15.2587 48 16.1831 48 24.0007C48 31.8155 47.9715 32.7428 47.8302 35.8313C47.7004 38.6859 47.2225 40.2366 46.8231 41.268C46.291 42.6347 45.6576 43.609 44.6333 44.6333C43.609 45.6576 42.6332 46.291 41.2666 46.8231C40.2351 47.2254 38.6845 47.7004 35.8299 47.8302C32.7442 47.9715 31.8169 48 23.9993 48C16.1845 48 15.2572 47.9729 12.1715 47.8302" fill="url(#paint0_linear_3_10)"/>
<path d="M12.1715 47.8302C9.31697 47.7004 7.76628 47.2254 6.73487 46.8231C5.36821 46.291 4.39385 45.6576 3.36815 44.6333C2.34244 43.609 1.70761 42.6347 1.17835 41.268C0.776057 40.2366 0.301008 38.6859 0.171189 35.8313C0.0285315 32.7456 0 31.8198 0 24.0021C0 16.1845 0.0313847 15.2601 0.169763 12.1715C0.299581 9.31697 0.777484 7.76913 1.17693 6.73487C1.70904 5.36821 2.34386 4.39385 3.36672 3.36672C4.391 2.34244 5.36535 1.70618 6.73344 1.17693C7.76485 0.774631 9.31554 0.299581 12.1701 0.169763C15.2572 0.0285315 16.1845 0 23.9993 0C31.8169 0 32.7413 0.0313847 35.8299 0.169763C38.6845 0.299581 40.2323 0.777484 41.2666 1.17693C42.6332 1.70618 43.6076 2.34244 44.6333 3.36672C45.659 4.391 46.291 5.36678 46.8231 6.73344C47.2254 7.76485 47.7004 9.31554 47.8302 12.1701C47.9715 15.2587 48 16.1831 48 24.0007C48 31.8155 47.9715 32.7428 47.8302 35.8313C47.7004 38.6859 47.2225 40.2366 46.8231 41.268C46.291 42.6347 45.6576 43.609 44.6333 44.6333C43.609 45.6576 42.6332 46.291 41.2666 46.8231C40.2351 47.2254 38.6845 47.7004 35.8299 47.8302C32.7442 47.9715 31.8169 48 23.9993 48C16.1845 48 15.2572 47.9729 12.1715 47.8302" fill="url(#paint1_radial_3_10)"/>
<path d="M12.1715 47.8302C9.31697 47.7004 7.76628 47.2254 6.73487 46.8231C5.36821 46.291 4.39385 45.6576 3.36815 44.6333C2.34244 43.609 1.70761 42.6347 1.17835 41.268C0.776057 40.2366 0.301008 38.6859 0.171189 35.8313C0.0285315 32.7456 0 31.8198 0 24.0021C0 16.1845 0.0313847 15.2601 0.169763 12.1715C0.299581 9.31697 0.777484 7.76913 1.17693 6.73487C1.70904 5.36821 2.34386 4.39385 3.36672 3.36672C4.391 2.34244 5.36535 1.70618 6.73344 1.17693C7.76485 0.774631 9.31554 0.299581 12.1701 0.169763C15.2572 0.0285315 16.1845 0 23.9993 0C31.8169 0 32.7413 0.0313847 35.8299 0.169763C38.6845 0.299581 40.2323 0.777484 41.2666 1.17693C42.6332 1.70618 43.6076 2.34244 44.6333 3.36672C45.659 4.391 46.291 5.36678 46.8231 6.73344C47.2254 7.76485 47.7004 9.31554 47.8302 12.1701C47.9715 15.2587 48 16.1831 48 24.0007C48 31.8155 47.9715 32.7428 47.8302 35.8313C47.7004 38.6859 47.2225 40.2366 46.8231 41.268C46.291 42.6347 45.6576 43.609 44.6333 44.6333C43.609 45.6576 42.6332 46.291 41.2666 46.8231C40.2351 47.2254 38.6845 47.7004 35.8299 47.8302C32.7442 47.9715 31.8169 48 23.9993 48C16.1845 48 15.2572 47.9729 12.1715 47.8302" fill="url(#paint2_radial_3_10)"/>
<path d="M12.1715 47.8302C9.31697 47.7004 7.76628 47.2254 6.73487 46.8231C5.36821 46.291 4.39385 45.6576 3.36815 44.6333C2.34244 43.609 1.70761 42.6347 1.17835 41.268C0.776057 40.2366 0.301008 38.6859 0.171189 35.8313C0.0285315 32.7456 0 31.8198 0 24.0021C0 16.1845 0.0313847 15.2601 0.169763 12.1715C0.299581 9.31697 0.777484 7.76913 1.17693 6.73487C1.70904 5.36821 2.34386 4.39385 3.36672 3.36672C4.391 2.34244 5.36535 1.70618 6.73344 1.17693C7.76485 0.774631 9.31554 0.299581 12.1701 0.169763C15.2572 0.0285315 16.1845 0 23.9993 0C31.8169 0 32.7413 0.0313847 35.8299 0.169763C38.6845 0.299581 40.2323 0.777484 41.2666 1.17693C42.6332 1.70618 43.6076 2.34244 44.6333 3.36672C45.659 4.391 46.291 5.36678 46.8231 6.73344C47.2254 7.76485 47.7004 9.31554 47.8302 12.1701C47.9715 15.2587 48 16.1831 48 24.0007C48 31.8155 47.9715 32.7428 47.8302 35.8313C47.7004 38.6859 47.2225 40.2366 46.8231 41.268C46.291 42.6347 45.6576 43.609 44.6333 44.6333C43.609 45.6576 42.6332 46.291 41.2666 46.8231C40.2351 47.2254 38.6845 47.7004 35.8299 47.8302C32.7442 47.9715 31.8169 48 23.9993 48C16.1845 48 15.2572 47.9729 12.1715 47.8302" fill="url(#paint3_radial_3_10)" fill-opacity="0.7"/>
<path d="M12.1715 47.8302C9.31697 47.7004 7.76628 47.2254 6.73487 46.8231C5.36821 46.291 4.39385 45.6576 3.36815 44.6333C2.34244 43.609 1.70761 42.6347 1.17835 41.268C0.776057 40.2366 0.301008 38.6859 0.171189 35.8313C0.0285315 32.7456 0 31.8198 0 24.0021C0 16.1845 0.0313847 15.2601 0.169763 12.1715C0.299581 9.31697 0.777484 7.76913 1.17693 6.73487C1.70904 5.36821 2.34386 4.39385 3.36672 3.36672C4.391 2.34244 5.36535 1.70618 6.73344 1.17693C7.76485 0.774631 9.31554 0.299581 12.1701 0.169763C15.2572 0.0285315 16.1845 0 23.9993 0C31.8169 0 32.7413 0.0313847 35.8299 0.169763C38.6845 0.299581 40.2323 0.777484 41.2666 1.17693C42.6332 1.70618 43.6076 2.34244 44.6333 3.36672C45.659 4.391 46.291 5.36678 46.8231 6.73344C47.2254 7.76485 47.7004 9.31554 47.8302 12.1701C47.9715 15.2587 48 16.1831 48 24.0007C48 31.8155 47.9715 32.7428 47.8302 35.8313C47.7004 38.6859 47.2225 40.2366 46.8231 41.268C46.291 42.6347 45.6576 43.609 44.6333 44.6333C43.609 45.6576 42.6332 46.291 41.2666 46.8231C40.2351 47.2254 38.6845 47.7004 35.8299 47.8302C32.7442 47.9715 31.8169 48 23.9993 48C16.1845 48 15.2572 47.9729 12.1715 47.8302" fill="url(#paint4_radial_3_10)"/>
<path d="M12.1715 47.8302C9.31697 47.7004 7.76628 47.2254 6.73487 46.8231C5.36821 46.291 4.39385 45.6576 3.36815 44.6333C2.34244 43.609 1.70761 42.6347 1.17835 41.268C0.776057 40.2366 0.301008 38.6859 0.171189 35.8313C0.0285315 32.7456 0 31.8198 0 24.0021C0 16.1845 0.0313847 15.2601 0.169763 12.1715C0.299581 9.31697 0.777484 7.76913 1.17693 6.73487C1.70904 5.36821 2.34386 4.39385 3.36672 3.36672C4.391 2.34244 5.36535 1.70618 6.73344 1.17693C7.76485 0.774631 9.31554 0.299581 12.1701 0.169763C15.2572 0.0285315 16.1845 0 23.9993 0C31.8169 0 32.7413 0.0313847 35.8299 0.169763C38.6845 0.299581 40.2323 0.777484 41.2666 1.17693C42.6332 1.70618 43.6076 2.34244 44.6333 3.36672C45.659 4.391 46.291 5.36678 46.8231 6.73344C47.2254 7.76485 47.7004 9.31554 47.8302 12.1701C47.9715 15.2587 48 16.1831 48 24.0007C48 31.8155 47.9715 32.7428 47.8302 35.8313C47.7004 38.6859 47.2225 40.2366 46.8231 41.268C46.291 42.6347 45.6576 43.609 44.6333 44.6333C43.609 45.6576 42.6332 46.291 41.2666 46.8231C40.2351 47.2254 38.6845 47.7004 35.8299 47.8302C32.7442 47.9715 31.8169 48 23.9993 48C16.1845 48 15.2572 47.9729 12.1715 47.8302" fill="url(#paint5_radial_3_10)"/>
<path d="M18.1132 23.9379C18.1132 20.7203 20.7209 18.1113 23.9386 18.1113C27.1562 18.1113 29.7653 20.7203 29.7653 23.9379C29.7653 27.1554 27.1562 29.7644 23.9386 29.7644C20.7209 29.7644 18.1132 27.1554 18.1132 23.9379V23.9379ZM14.9633 23.9379C14.9633 28.8947 18.9815 32.9128 23.9386 32.9128C28.8956 32.9128 32.9138 28.8947 32.9138 23.9379C32.9138 18.9811 28.8956 14.963 23.9386 14.963C18.9815 14.963 14.9635 18.9808 14.9635 23.9379H14.9633ZM31.1718 14.6072C31.1716 15.022 31.2945 15.4275 31.5248 15.7725C31.7551 16.1175 32.0826 16.3865 32.4658 16.5454C32.849 16.7043 33.2707 16.746 33.6776 16.6652C34.0845 16.5845 34.4583 16.3849 34.7518 16.0917C35.0452 15.7985 35.2452 15.4248 35.3263 15.018C35.4073 14.6112 35.366 14.1894 35.2074 13.8061C35.0488 13.4228 34.7801 13.0951 34.4352 12.8645C34.0904 12.6339 33.6849 12.5108 33.2701 12.5106H33.2692C32.7132 12.5109 32.18 12.7318 31.7867 13.1249C31.3934 13.518 31.1722 14.0511 31.1718 14.6072V14.6072ZM16.8771 38.1649C15.1729 38.0873 14.2467 37.8035 13.6311 37.5637C12.8151 37.246 12.2328 36.8676 11.6206 36.2563C11.0085 35.645 10.6295 35.0633 10.3132 34.2473C10.0733 33.632 9.78941 32.7055 9.71194 31.0015C9.6272 29.1591 9.61028 28.6057 9.61028 23.9382C9.61028 19.2706 9.6286 18.7187 9.71194 16.8749C9.78955 15.1708 10.0755 14.2461 10.3132 13.6291C10.6309 12.813 11.0093 12.2308 11.6206 11.6186C12.232 11.0065 12.8137 10.6276 13.6311 10.3113C14.2464 10.0713 15.1729 9.78749 16.8771 9.71002C18.7195 9.62529 19.2729 9.60837 23.9386 9.60837C28.6042 9.60837 29.1582 9.62641 31.0022 9.7103C32.7063 9.78791 33.631 10.0738 34.2481 10.3116C35.0641 10.6278 35.6464 11.0076 36.2586 11.6189C36.8707 12.2302 37.2483 12.8133 37.566 13.6293C37.8059 14.2446 38.0898 15.1711 38.1673 16.8751C38.252 18.719 38.2689 19.2709 38.2689 23.9384C38.2689 28.606 38.252 29.1579 38.1673 31.0018C38.0897 32.7058 37.8044 33.632 37.566 34.2475C37.2483 35.0636 36.8699 35.6458 36.2586 36.2566C35.6472 36.8673 35.0641 37.2463 34.2481 37.5639C33.6328 37.8039 32.7063 38.0877 31.0022 38.1652C29.1597 38.2499 28.6063 38.2668 23.9386 38.2668C19.2708 38.2668 18.7189 38.2499 16.8771 38.1652V38.1649ZM16.7323 6.56547C14.8716 6.65021 13.6001 6.94524 12.4897 7.3773C11.3404 7.82349 10.3662 8.42208 9.3934 9.39332C8.42059 10.3645 7.82351 11.3389 7.37731 12.4895C6.94523 13.6005 6.65019 14.8713 6.56545 16.7319C6.47931 18.5956 6.45959 19.1913 6.45959 23.9379C6.45959 28.6844 6.47931 29.2802 6.56545 31.1438C6.65019 33.0046 6.94523 34.2752 7.37731 35.3863C7.82351 36.5355 8.42073 37.5116 9.3934 38.4825C10.3661 39.4533 11.339 40.051 12.4897 40.4985C13.6022 40.9305 14.8716 41.2256 16.7323 41.3103C18.597 41.395 19.1918 41.4161 23.9386 41.4161C28.6853 41.4161 29.2811 41.3964 31.1448 41.3103C33.0057 41.2256 34.2763 40.9305 35.3874 40.4985C36.5367 40.051 37.5109 39.4537 38.4837 38.4825C39.4565 37.5112 40.0523 36.5355 40.4998 35.3863C40.9319 34.2752 41.2283 33.0045 41.3117 31.1438C41.3964 29.2788 41.4161 28.6844 41.4161 23.9379C41.4161 19.1913 41.3964 18.5956 41.3117 16.7319C41.2269 14.8711 40.9319 13.5998 40.4998 12.4895C40.0523 11.3403 39.455 10.3661 38.4837 9.39332C37.5124 8.42055 36.5367 7.82349 35.3888 7.3773C34.2763 6.94524 33.0055 6.64881 31.1462 6.56547C29.2822 6.48032 28.6867 6.45963 23.9407 6.45963C19.1946 6.45963 18.5977 6.47934 16.733 6.56547" fill="white"/>
<defs>
<linearGradient id="paint0_linear_3_10" x1="24.0497" y1="12.9193" x2="24" y2="48" gradientUnits="userSpaceOnUse">
<stop stop-color="#FE02B7"/>
<stop offset="0.256159" stop-color="#FC2278"/>
<stop offset="0.465895" stop-color="#FF2160"/>
<stop offset="1" stop-color="#FF5234"/>
</linearGradient>
<radialGradient id="paint1_radial_3_10" cx="0" cy="0" r="1" gradientUnits="userSpaceOnUse" gradientTransform="translate(7.35404 1.49068) rotate(64.7828) scale(18.8938 47.3503)">
<stop stop-color="#7837F9"/>
<stop offset="0.277606" stop-color="#7837F9" stop-opacity="0.9"/>
<stop offset="1" stop-color="#7837F9" stop-opacity="0"/>
</radialGradient>
<radialGradient id="paint2_radial_3_10" cx="0" cy="0" r="1" gradientUnits="userSpaceOnUse" gradientTransform="translate(11.6273 47.0062) rotate(79.1145) scale(21.0496 33.4646)">
<stop stop-color="#FFD702"/>
<stop offset="1" stop-color="#FFD702" stop-opacity="0"/>
</radialGradient>
<radialGradient id="paint3_radial_3_10" cx="0" cy="0" r="1" gradientUnits="userSpaceOnUse" gradientTransform="translate(48.9938 43.1801) rotate(-159.55) scale(9.38657 13.5732)">
<stop stop-color="#D300C5"/>
<stop offset="1" stop-color="#D300C5" stop-opacity="0"/>
</radialGradient>
<radialGradient id="paint4_radial_3_10" cx="0" cy="0" r="1" gradientUnits="userSpaceOnUse" gradientTransform="translate(45.2174 3.47826) rotate(165.426) scale(30.8049 17.1849)">
<stop stop-color="#D300C5"/>
<stop offset="1" stop-color="#D300C5" stop-opacity="0"/>
</radialGradient>
<radialGradient id="paint5_radial_3_10" cx="0" cy="0" r="1" gradientUnits="userSpaceOnUse" gradientTransform="translate(-7.61199e-07 19.7764) rotate(-17.1428) scale(20.9038 10.8846)">
<stop stop-color="#D300C5"/>
<stop offset="1" stop-color="#D300C5" stop-opacity="0"/>
</radialGradient>
</defs>
</svg>
